<svg width="20" height="27" viewBox="0 0 20 27" fill="none" xmlns="http://www.w3.org/2000/svg">
<path d="M2.44592 19.4063V23.6251H5.50314L14.5199 11.1826L11.4627 6.96385L2.44592 19.4063ZM16.8842 7.9201C16.9597 7.81603 17.0197 7.6924 17.0606 7.55631C17.1015 7.42021 17.1226 7.27432 17.1226 7.12698C17.1226 6.97964 17.1015 6.83375 17.0606 6.69765C17.0197 6.56156 16.9597 6.43793 16.8842 6.33385L14.9765 3.70136C14.901 3.59706 14.8114 3.51432 14.7128 3.45787C14.6142 3.40142 14.5085 3.37236 14.4017 3.37236C14.2949 3.37236 14.1892 3.40142 14.0906 3.45787C13.9919 3.51432 13.9024 3.59706 13.8269 3.70136L12.335 5.7601L15.3922 9.97885L16.8842 7.9201Z" fill="black"/>
</svg>
