<svg width="21" height="29" viewBox="0 0 21 29" fill="none" xmlns="http://www.w3.org/2000/svg">
<path d="M16.625 4.83329H14.875V3.62496C14.875 3.30449 14.7828 2.99714 14.6187 2.77054C14.4546 2.54393 14.2321 2.41663 14 2.41663C13.7679 2.41663 13.5454 2.54393 13.3813 2.77054C13.2172 2.99714 13.125 3.30449 13.125 3.62496V4.83329H7.875V3.62496C7.875 3.30449 7.78281 2.99714 7.61872 2.77054C7.45462 2.54393 7.23206 2.41663 7 2.41663C6.76794 2.41663 6.54538 2.54393 6.38128 2.77054C6.21719 2.99714 6.125 3.30449 6.125 3.62496V4.83329H4.375C3.67881 4.83329 3.01113 5.21521 2.51884 5.89503C2.02656 6.57485 1.75 7.49688 1.75 8.45829V22.9583C1.75 23.9197 2.02656 24.8417 2.51884 25.5216C3.01113 26.2014 3.67881 26.5833 4.375 26.5833H16.625C17.3212 26.5833 17.9889 26.2014 18.4812 25.5216C18.9734 24.8417 19.25 23.9197 19.25 22.9583V8.45829C19.25 7.49688 18.9734 6.57485 18.4812 5.89503C17.9889 5.21521 17.3212 4.83329 16.625 4.83329ZM17.5 22.9583C17.5 23.2788 17.4078 23.5861 17.2437 23.8127C17.0796 24.0393 16.8571 24.1666 16.625 24.1666H4.375C4.14294 24.1666 3.92038 24.0393 3.75628 23.8127C3.59219 23.5861 3.5 23.2788 3.5 22.9583V14.5H17.5V22.9583ZM17.5 12.0833H3.5V8.45829C3.5 8.13782 3.59219 7.83048 3.75628 7.60387C3.92038 7.37727 4.14294 7.24996 4.375 7.24996H6.125V8.45829C6.125 8.77876 6.21719 9.08611 6.38128 9.31271C6.54538 9.53932 6.76794 9.66663 7 9.66663C7.23206 9.66663 7.45462 9.53932 7.61872 9.31271C7.78281 9.08611 7.875 8.77876 7.875 8.45829V7.24996H13.125V8.45829C13.125 8.77876 13.2172 9.08611 13.3813 9.31271C13.5454 9.53932 13.7679 9.66663 14 9.66663C14.2321 9.66663 14.4546 9.53932 14.6187 9.31271C14.7828 9.08611 14.875 8.77876 14.875 8.45829V7.24996H16.625C16.8571 7.24996 17.0796 7.37727 17.2437 7.60387C17.4078 7.83048 17.5 8.13782 17.5 8.45829V12.0833Z" fill="black"/>
</svg>
