<svg width="43" height="42" viewBox="0 0 43 42" fill="none" xmlns="http://www.w3.org/2000/svg">
<path d="M21.5 20.745C24.176 20.745 26.3575 18.4162 26.3575 15.5827C26.3575 12.7815 24.1875 10.563 21.5 10.563C18.8355 10.563 16.6425 12.8145 16.6425 15.6045C16.6533 18.4275 18.8348 20.745 21.5 20.745ZM8.54625 20.9857C10.8621 20.9857 12.7626 18.9532 12.7626 16.4602C12.7626 14.0227 10.8851 12.0562 8.54625 12.0562C6.22963 12.0562 4.31766 14.055 4.32918 16.482C4.3407 18.9645 6.22963 20.9857 8.54625 20.9857ZM34.4653 20.9857C36.7704 20.9857 38.6708 18.9645 38.6708 16.482C38.6823 14.055 36.7704 12.0562 34.4653 12.0562C32.1156 12.0562 30.2374 14.022 30.2374 16.4602C30.2374 18.9532 32.1379 20.9857 34.4653 20.9857ZM21.5 19.086C19.8583 19.086 18.4524 17.5485 18.4524 15.6045C18.4524 13.6935 19.8361 12.222 21.5008 12.222C23.1755 12.222 24.5476 13.6717 24.5476 15.582C24.5476 17.5267 23.1639 19.086 21.5 19.086ZM8.54625 19.35C7.17409 19.35 6.00464 18.0645 6.00464 16.4827C6.00464 14.9347 7.16257 13.6927 8.54625 13.6927C9.96295 13.6927 11.0986 14.9122 11.0986 16.461C11.0986 18.0645 9.92916 19.35 8.54625 19.35ZM34.4653 19.35C33.0708 19.35 31.9014 18.0645 31.9014 16.461C31.9014 14.9122 33.0371 13.6935 34.4653 13.6935C35.8482 13.6935 36.9954 14.9347 36.9954 16.4835C36.9954 18.0645 35.8367 19.35 34.4653 19.35ZM2.29359 31.0575H11.1209C10.5811 30.7612 10.1649 30.102 10.244 29.4322H2.01255C1.78757 29.4322 1.67546 29.3445 1.67546 29.136C1.67546 26.412 4.85746 23.8635 8.53473 23.8635C9.95143 23.8635 11.2222 24.1935 12.3126 24.819C12.6744 24.3712 13.1027 23.9789 13.5834 23.655C12.1329 22.7212 10.3899 22.2382 8.53473 22.2382C3.82316 22.2382 0 25.5772 0 29.235C0 30.4537 0.764786 31.0575 2.29359 31.0575ZM40.7172 31.0575C42.2352 31.0575 43 30.4537 43 29.235C43 25.5772 39.1761 22.2382 34.4653 22.2382C32.6101 22.2382 30.8778 22.7212 29.4166 23.6557C29.9226 23.9955 30.338 24.3802 30.6989 24.819C31.7778 24.1935 33.0593 23.8635 34.4653 23.8635C38.1425 23.8635 41.3245 26.412 41.3245 29.136C41.3245 29.3445 41.2232 29.4322 40.9982 29.4322H32.7668C32.8343 30.102 32.4297 30.7612 31.8899 31.0575H40.7172ZM14.438 31.0575H28.562C30.4279 31.0575 31.3171 30.5085 31.3171 29.3002C31.3171 26.4225 27.5945 22.26 21.5 22.26C15.394 22.26 11.6714 26.4225 11.6714 29.3002C11.6714 30.5085 12.5606 31.0575 14.438 31.0575ZM13.8982 29.4C13.6064 29.4 13.4828 29.3227 13.4828 29.0925C13.4828 27.2902 16.3392 23.919 21.5 23.919C26.65 23.919 29.5064 27.2902 29.5064 29.0917C29.5064 29.3227 29.3936 29.3992 29.1018 29.3992L13.8982 29.4Z" fill="#CCCCCC"/>
</svg>
