<svg width="80" height="80" viewBox="0 0 80 80" fill="none" xmlns="http://www.w3.org/2000/svg">
<path d="M73.3332 56.6734C73.3317 61.2319 71.7735 65.6533 68.9166 69.2055C66.0597 72.7577 62.0753 75.2277 57.6232 76.2067L55.4965 69.8267C57.444 69.506 59.296 68.7572 60.9192 67.6344C62.5423 66.5115 63.8962 65.0426 64.8832 63.3334H56.6665C54.8984 63.3334 53.2027 62.631 51.9525 61.3808C50.7022 60.1305 49.9998 58.4349 49.9998 56.6667V43.3334C49.9998 41.5653 50.7022 39.8696 51.9525 38.6194C53.2027 37.3691 54.8984 36.6667 56.6665 36.6667H66.4598C65.6464 30.2231 62.5096 24.2977 57.6379 20.0023C52.7663 15.707 46.4947 13.337 39.9998 13.337C33.505 13.337 27.2334 15.707 22.3617 20.0023C17.4901 24.2977 14.3533 30.2231 13.5398 36.6667H23.3332C25.1013 36.6667 26.797 37.3691 28.0472 38.6194C29.2975 39.8696 29.9998 41.5653 29.9998 43.3334V56.6667C29.9998 58.4349 29.2975 60.1305 28.0472 61.3808C26.797 62.631 25.1013 63.3334 23.3332 63.3334H13.3332C11.5651 63.3334 9.86937 62.631 8.61913 61.3808C7.36888 60.1305 6.6665 58.4349 6.6665 56.6667V40.0001C6.6665 21.5901 21.5898 6.66675 39.9998 6.66675C58.4098 6.66675 73.3332 21.5901 73.3332 40.0001V56.6667V56.6734Z" fill="#9A9797"/>
</svg>
