<svg width="21" height="29" viewBox="0 0 21 29" fill="none" xmlns="http://www.w3.org/2000/svg">
<path d="M14.315 16.9166C14.385 16.1191 14.4375 15.3216 14.4375 14.5C14.4375 13.6783 14.385 12.8808 14.315 12.0833H17.2725C17.4125 12.8566 17.5 13.6662 17.5 14.5C17.5 15.3337 17.4125 16.1433 17.2725 16.9166M12.7663 23.635C13.2913 22.2937 13.6938 20.8437 13.9738 19.3333H16.555C15.7073 21.3491 14.3623 22.8761 12.7663 23.635ZM12.5475 16.9166H8.4525C8.365 16.1191 8.3125 15.3216 8.3125 14.5C8.3125 13.6783 8.365 12.8687 8.4525 12.0833H12.5475C12.6263 12.8687 12.6875 13.6783 12.6875 14.5C12.6875 15.3216 12.6263 16.1191 12.5475 16.9166ZM10.5 24.1183C9.77375 22.6683 9.1875 21.0612 8.82875 19.3333H12.1712C11.8125 21.0612 11.2262 22.6683 10.5 24.1183ZM7 9.66663H4.445C5.284 7.64534 6.62795 6.11592 8.225 5.36496C7.7 6.70621 7.30625 8.15621 7 9.66663ZM4.445 19.3333H7C7.30625 20.8437 7.7 22.2937 8.225 23.635C6.6313 22.8757 5.28924 21.3485 4.445 19.3333ZM3.7275 16.9166C3.5875 16.1433 3.5 15.3337 3.5 14.5C3.5 13.6662 3.5875 12.8566 3.7275 12.0833H6.685C6.615 12.8808 6.5625 13.6783 6.5625 14.5C6.5625 15.3216 6.615 16.1191 6.685 16.9166M10.5 4.86954C11.2262 6.31954 11.8125 7.93871 12.1712 9.66663H8.82875C9.1875 7.93871 9.77375 6.31954 10.5 4.86954ZM16.555 9.66663H13.9738C13.6999 8.17005 13.2944 6.72542 12.7663 5.36496C14.3763 6.12621 15.715 7.66079 16.555 9.66663ZM10.5 2.41663C5.66125 2.41663 1.75 7.85413 1.75 14.5C1.75 17.7047 2.67187 20.7781 4.31282 23.0442C5.12533 24.1662 6.08992 25.0563 7.15152 25.6635C8.21312 26.2707 9.35093 26.5833 10.5 26.5833C12.8206 26.5833 15.0462 25.3102 16.6872 23.0442C18.3281 20.7781 19.25 17.7047 19.25 14.5C19.25 12.9132 19.0237 11.3419 18.5839 9.87587C18.1442 8.40985 17.4997 7.07779 16.6872 5.95575C15.8747 4.83371 14.9101 3.94366 13.8485 3.33641C12.7869 2.72917 11.6491 2.41663 10.5 2.41663Z" fill="black"/>
</svg>
