<svg width="80" height="80" viewBox="0 0 80 80" fill="none" xmlns="http://www.w3.org/2000/svg">
<g clip-path="url(#clip0_84_33)">
<path d="M70 23.3334C70.8496 23.3343 71.6668 23.6596 72.2846 24.2429C72.9024 24.8261 73.2742 25.6232 73.324 26.4714C73.3737 27.3195 73.0978 28.1546 72.5525 28.8061C72.0072 29.4577 71.2337 29.8764 70.39 29.9767L70 30V63.3334C70.8496 63.3343 71.6668 63.6596 72.2846 64.2429C72.9024 64.8261 73.2742 65.6232 73.324 66.4714C73.3737 67.3195 73.0978 68.1546 72.5525 68.8061C72.0072 69.4577 71.2337 69.8764 70.39 69.9767L70 70H10.0001C9.15045 69.9991 8.33328 69.6738 7.71549 69.0905C7.0977 68.5073 6.72593 67.7102 6.67614 66.8621C6.62635 66.0139 6.9023 65.1788 7.4476 64.5273C7.9929 63.8758 8.7664 63.4571 9.61005 63.3567L10.0001 63.3334V30C9.15045 29.9991 8.33328 29.6738 7.71549 29.0905C7.0977 28.5073 6.72593 27.7102 6.67614 26.8621C6.62635 26.0139 6.9023 25.1788 7.4476 24.5273C7.9929 23.8758 8.7664 23.4571 9.61005 23.3567L10.0001 23.3334H70ZM63.3334 30H16.6667V63.3334H23.3334V40C23.3334 39.116 23.6846 38.2681 24.3097 37.643C24.9348 37.0179 25.7827 36.6667 26.6667 36.6667C27.5508 36.6667 28.3986 37.0179 29.0237 37.643C29.6489 38.2681 30.0001 39.116 30.0001 40V63.3334H36.6667V40C36.6667 39.116 37.0179 38.2681 37.643 37.643C38.2681 37.0179 39.116 36.6667 40 36.6667C40.8841 36.6667 41.7319 37.0179 42.3571 37.643C42.9822 38.2681 43.3334 39.116 43.3334 40V63.3334H50V40C50 39.116 50.3512 38.2681 50.9764 37.643C51.6015 37.0179 52.4493 36.6667 53.3334 36.6667C54.2174 36.6667 55.0653 37.0179 55.6904 37.643C56.3155 38.2681 56.6667 39.116 56.6667 40V63.3334H63.3334V30ZM60 13.3334C60.8841 13.3334 61.732 13.6846 62.3571 14.3097C62.9822 14.9348 63.3334 15.7827 63.3334 16.6667C63.3334 17.5508 62.9822 18.3986 62.3571 19.0237C61.732 19.6489 60.8841 20 60 20H20.0001C19.116 20 18.2681 19.6489 17.643 19.0237C17.0179 18.3986 16.6667 17.5508 16.6667 16.6667C16.6667 15.7827 17.0179 14.9348 17.643 14.3097C18.2681 13.6846 19.116 13.3334 20.0001 13.3334H60Z" fill="#9A9797"/>
</g>
<defs>
<clipPath id="clip0_84_33">
<rect width="80" height="80" fill="white"/>
</clipPath>
</defs>
</svg>
