<svg width="20" height="16" viewBox="0 0 20 16" fill="none" xmlns="http://www.w3.org/2000/svg">
<path d="M13.0769 2.27545V0.769231M13.0769 2.27545V3.78166M13.0769 2.27545H8.46154M0.769231 6.7941V13.5721C0.769231 13.9715 0.985347 14.3547 1.37004 14.6371C1.75473 14.9196 2.27648 15.0783 2.82051 15.0783H17.1795C17.7235 15.0783 18.2453 14.9196 18.63 14.6371C19.0147 14.3547 19.2308 13.9715 19.2308 13.5721V6.7941M0.769231 6.7941H19.2308M0.769231 6.7941V3.78166C0.769231 3.38219 0.985347 2.99908 1.37004 2.71661C1.75473 2.43414 2.27648 2.27545 2.82051 2.27545H4.87179M19.2308 6.7941V3.78166C19.2308 3.38219 19.0147 2.99908 18.63 2.71661C18.2453 2.43414 17.7235 2.27545 17.1795 2.27545H16.6667M4.87179 0.769231V3.78166" stroke="#CCCCCC" stroke-width="1.5" stroke-linecap="round" stroke-linejoin="round"/>
</svg>
