<svg width="42" height="36" viewBox="0 0 42 36" fill="none" xmlns="http://www.w3.org/2000/svg">
<path d="M21.1339 4.49774H21.3675C23.5252 4.50449 34.4584 4.57199 37.4062 5.25149C38.2974 5.45887 39.1095 5.86309 39.7613 6.42376C40.4131 6.98443 40.8818 7.68191 41.1206 8.44649C41.3857 9.30149 41.5721 10.4332 41.6981 11.601L41.7244 11.835L41.7821 12.42L41.8031 12.654C41.9737 14.7105 41.9947 16.6365 41.9974 17.0572V17.226C41.9947 17.6625 41.9711 19.719 41.7821 21.861L41.7611 22.0972L41.7375 22.3312C41.6062 23.6182 41.412 24.8962 41.1206 25.8367C40.8818 26.6013 40.4131 27.2988 39.7613 27.8595C39.1095 28.4201 38.2974 28.8244 37.4062 29.0317C34.3612 29.7337 22.7876 29.7832 21.1837 29.7855H20.811C19.9999 29.7855 16.6451 29.772 13.1276 29.6685L12.6814 29.655L12.453 29.646L12.0041 29.6302L11.5552 29.6145C8.6415 29.5042 5.86687 29.3265 4.5885 29.0295C3.69765 28.8223 2.88579 28.4184 2.23401 27.8582C1.58223 27.2979 1.11332 26.6009 0.874125 25.8367C0.58275 24.8985 0.3885 23.6182 0.25725 22.3312L0.23625 22.095L0.21525 21.861C0.084954 20.3364 0.0131652 18.8086 0 17.28L0 17.0032C0.00525 16.5195 0.02625 14.8477 0.168 13.0027L0.186375 12.771L0.19425 12.654L0.21525 12.42L0.273 11.835L0.29925 11.601C0.42525 10.4332 0.611625 9.29924 0.87675 8.44649C1.11555 7.68191 1.58427 6.98443 2.23608 6.42376C2.88789 5.86309 3.69996 5.45887 4.59112 5.25149C5.8695 4.95899 8.64412 4.77899 11.5579 4.66649L12.0041 4.65074L12.4556 4.63724L12.6814 4.63049L13.1302 4.61474C15.6285 4.5459 18.1277 4.50765 20.6272 4.49999L21.1339 4.49774ZM16.8 11.7202V22.5607L27.7121 17.1427L16.8 11.7202Z" fill="#CAADD6"/>
</svg>
