<svg width="29" height="25" viewBox="0 0 29 25" fill="none" xmlns="http://www.w3.org/2000/svg">
<path d="M14.4998 22.9167C7.82621 22.9167 2.4165 18.2532 2.4165 12.5C2.4165 6.74692 7.82621 2.08337 14.4998 2.08337C21.1735 2.08337 26.5832 6.74692 26.5832 12.5C26.5832 18.2532 21.1735 22.9167 14.4998 22.9167Z" stroke="#CCCCCC" stroke-width="1.5" stroke-linecap="round" stroke-linejoin="round"/>
<path d="M14.4998 16.6667C13.218 16.6667 11.9886 16.2277 11.0822 15.4463M14.4998 16.6667C15.7817 16.6667 17.0111 16.2277 17.9175 15.4463M14.4998 16.6667V22.9167M11.0822 15.4463C10.1757 14.6649 9.6665 13.6051 9.6665 12.5M11.0822 15.4463L5.95571 19.8657M9.6665 12.5C9.6665 11.395 10.1757 10.3352 11.0822 9.55376C11.9886 8.77236 13.218 8.33337 14.4998 8.33337M9.6665 12.5H2.4165M14.4998 8.33337C15.7817 8.33337 17.0111 8.77236 17.9175 9.55376M14.4998 8.33337V2.08337M17.9175 9.55376C18.8239 10.3352 19.3332 11.395 19.3332 12.5M17.9175 9.55376L23.044 5.13442M19.3332 12.5C19.3332 13.6051 18.8239 14.6649 17.9175 15.4463M19.3332 12.5H26.5832M17.9175 15.4463L23.044 19.8657M5.95571 5.13442L11.0827 9.55212" stroke="#CCCCCC" stroke-width="1.5" stroke-linecap="round" stroke-linejoin="round"/>
</svg>
