<svg width="80" height="80" viewBox="0 0 80 80" fill="none" xmlns="http://www.w3.org/2000/svg">
<path d="M36.1329 50C36.1329 50.8854 35.8204 51.6406 35.1954 52.2656L27.6563 59.8047C27.0313 60.4297 26.2631 60.7422 25.3517 60.7422C24.4402 60.7422 23.672 60.4427 23.047 59.8438C22.422 59.2448 22.1095 58.4766 22.1095 57.5391C22.1095 56.6276 22.422 55.8594 23.047 55.2344L30.586 47.6953C31.211 47.0703 31.9793 46.7578 32.8907 46.7578C33.8022 46.7578 34.5704 47.0703 35.1954 47.6953C35.8204 48.3203 36.1329 49.0885 36.1329 50ZM28.1251 45.9375C28.1251 46.849 27.8126 47.6172 27.1876 48.2422L21.6017 53.7891C20.9767 54.4141 20.2215 54.7266 19.336 54.7266C18.4246 54.7266 17.6563 54.4271 17.0313 53.8281C16.4063 53.2292 16.0938 52.4609 16.0938 51.5234C16.0938 50.612 16.4063 49.8438 17.0313 49.2188L22.5782 43.6328C22.8647 43.3464 23.2162 43.125 23.6329 42.9688C24.0496 42.8125 24.4662 42.7214 24.8829 42.6953C25.7944 42.6953 26.5626 43.0078 27.1876 43.6328C27.8126 44.2578 28.1251 45.026 28.1251 45.9375ZM41.6017 56.6016C41.6017 57.4609 41.2761 58.2161 40.6251 58.8672L33.672 65.8203C33.047 66.4453 32.2787 66.7578 31.3673 66.7578C30.4558 66.7578 29.6876 66.4583 29.0626 65.8594C28.4376 65.2604 28.1251 64.4922 28.1251 63.5547C28.1251 62.6432 28.4376 61.875 29.0626 61.25L36.0548 54.2969C36.7058 53.6458 37.461 53.3203 38.3204 53.3203C39.2058 53.3203 39.9741 53.6328 40.6251 54.2578C41.2761 54.8828 41.6017 55.6641 41.6017 56.6016ZM37.3829 72.8125C36.4715 72.8125 35.7032 72.5 35.0782 71.875C34.4532 71.25 34.1407 70.4818 34.1407 69.5703C34.1407 68.6589 34.4532 67.8906 35.0782 67.2656L40.3517 62.0312C41.0027 61.3802 41.7709 61.0547 42.6563 61.0547C43.5678 61.0547 44.336 61.3802 44.961 62.0312C45.586 62.6823 45.8985 63.4635 45.8985 64.375C45.8985 64.7917 45.8074 65.1953 45.6251 65.5859C45.4428 65.9766 45.2084 66.3151 44.922 66.6016L39.6876 71.875C39.0626 72.5 38.2944 72.8125 37.3829 72.8125ZM75.0001 27.7734C75.0001 30.0651 74.7006 32.0703 74.1017 33.7891C73.5027 35.5078 72.6954 37.1094 71.6798 38.5938C70.6642 40.0781 69.4923 41.4844 68.1642 42.8125C66.836 44.1406 65.4298 45.5729 63.9454 47.1094L40.8985 23.9453L29.297 35.4688C28.5157 36.1979 27.6043 36.5625 26.5626 36.5625C25.4949 36.5625 24.5965 36.1979 23.8673 35.4688C23.1381 34.7396 22.7605 33.8281 22.7345 32.7344C22.7345 31.6667 23.1121 30.7552 23.8673 30L40.586 13.3594C42.5131 11.4583 44.7006 10.013 47.1485 9.02344C49.5965 8.03385 52.1746 7.52604 54.8829 7.5C57.6694 7.5 60.2866 8.03385 62.7345 9.10156C65.1824 10.1693 67.3048 11.6276 69.1017 13.4766C70.8985 15.3255 72.3308 17.474 73.3985 19.9219C74.4662 22.3698 75.0001 24.987 75.0001 27.7734ZM64.3751 51.3672C64.3751 52.2786 64.0626 53.0469 63.4376 53.6719C62.8126 54.2969 62.0444 54.6094 61.1329 54.6094C60.2475 54.6094 59.4923 54.2969 58.8673 53.6719L46.8751 41.6406C46.6928 41.4583 46.4454 41.3672 46.1329 41.3672C45.8465 41.3672 45.5991 41.4583 45.3907 41.6406C45.1824 41.8229 45.0782 42.0703 45.0782 42.3828C45.0782 42.6432 45.1824 42.8776 45.3907 43.0859L58.5157 56.2109C59.1668 56.862 59.4923 57.6302 59.4923 58.5156C59.4923 59.4271 59.1798 60.1953 58.5548 60.8203C57.9298 61.4453 57.1485 61.7578 56.211 61.7578C55.3256 61.7578 54.5704 61.4453 53.9454 60.8203L40.8204 47.6953C40.6381 47.513 40.3907 47.4219 40.0782 47.4219C39.7918 47.4219 39.5574 47.513 39.3751 47.6953C39.1928 47.8776 39.0886 48.125 39.0626 48.4375C39.0626 48.6979 39.1668 48.9323 39.3751 49.1406L52.5001 62.2656C53.1251 62.8906 53.4376 63.6589 53.4376 64.5703C53.4376 65.4818 53.1251 66.25 52.5001 66.875C51.8751 67.5 51.1069 67.8125 50.1954 67.8125C49.5183 67.8125 48.9715 67.6693 48.5548 67.3828C48.1381 67.0964 47.7084 66.7057 47.2657 66.2109C47.5261 65.6641 47.6563 65.026 47.6563 64.2969C47.6563 63.5938 47.5261 62.9427 47.2657 62.3438C47.0053 61.7448 46.6407 61.2109 46.172 60.7422C45.7032 60.2734 45.1563 59.9219 44.5313 59.6875C43.9063 59.4531 43.2423 59.3229 42.5392 59.2969C43.06 58.4896 43.3204 57.5911 43.3204 56.6016C43.3204 55.8984 43.1902 55.2474 42.9298 54.6484C42.6694 54.0495 42.3178 53.5156 41.8751 53.0469C41.4324 52.5781 40.8985 52.2135 40.2735 51.9531C39.6485 51.6927 39.0105 51.5625 38.3595 51.5625H38.0079C37.9037 51.5625 37.7735 51.5885 37.6173 51.6406C37.6954 51.3542 37.7605 51.0807 37.8126 50.8203C37.8647 50.5599 37.8907 50.2734 37.8907 49.9609C37.8907 49.2839 37.7605 48.6458 37.5001 48.0469C37.2397 47.4479 36.8881 46.9141 36.4454 46.4453C36.0027 45.9766 35.4688 45.612 34.8438 45.3516C34.2188 45.0911 33.5678 44.9609 32.8907 44.9609C32.3438 44.9609 31.823 45.0521 31.3282 45.2344C30.8334 45.4167 30.3517 45.6641 29.8829 45.9766C29.8829 45.2734 29.7527 44.6224 29.4923 44.0234C29.2319 43.4245 28.8803 42.8906 28.4376 42.4219C27.9949 41.9531 27.4741 41.5885 26.8751 41.3281C26.2761 41.0677 25.6121 40.9375 24.8829 40.9375C24.2319 40.9375 23.5938 41.0547 22.9688 41.2891C22.3438 41.5234 21.797 41.888 21.3282 42.3828L16.3673 47.3828C14.8048 45.7943 13.3334 44.3229 11.9532 42.9688C10.573 41.6146 9.3751 40.1823 8.35947 38.6719C7.34385 37.1615 6.52354 35.5208 5.89854 33.75C5.27354 31.9792 4.97406 29.8958 5.0001 27.5C5.0001 24.7396 5.53395 22.1484 6.60166 19.7266C7.66937 17.3047 9.1277 15.1953 10.9767 13.3984C12.8256 11.6016 14.9741 10.1693 17.422 9.10156C19.8699 8.03385 22.461 7.5 25.1954 7.5C27.7215 7.5 30.1433 7.94271 32.461 8.82812C34.7787 9.71354 36.8751 11.0156 38.7501 12.7344L22.6173 28.75C22.0965 29.2708 21.6928 29.8698 21.4063 30.5469C21.1199 31.224 20.9636 31.9531 20.9376 32.7344C20.9376 33.5156 21.0808 34.2448 21.3673 34.9219C21.6537 35.599 22.0574 36.1849 22.5782 36.6797C23.0991 37.1745 23.698 37.5781 24.3751 37.8906C25.0522 38.2031 25.7813 38.3594 26.5626 38.3594C27.3178 38.3594 28.034 38.2161 28.711 37.9297C29.3881 37.6432 30.0001 37.2396 30.547 36.7188L40.8985 26.4062L63.4376 49.0625C64.0626 49.6875 64.3751 50.4557 64.3751 51.3672ZM41.6017 72.4219L45.9376 68.0859C46.1459 68.5547 46.2501 69.0234 46.2501 69.4922C46.2501 70.4036 45.9376 71.1719 45.3126 71.7969C44.6876 72.4219 43.9194 72.7344 43.0079 72.7344C42.5392 72.7344 42.0704 72.6302 41.6017 72.4219Z" fill="#9A9797"/>
</svg>
