<svg width="80" height="70" viewBox="0 0 80 70" fill="none" xmlns="http://www.w3.org/2000/svg">
<g clip-path="url(#clip0_84_19)">
<path d="M0 30.625V67.8125C0 69.0211 0.895 70 2 70H12V26.25H4C1.79125 26.25 0 28.2092 0 30.625ZM45 24.0625H42V18.5938C42 17.9895 41.5525 17.5 41 17.5H39C38.4475 17.5 38 17.9895 38 18.5938V27.3438C38 27.9481 38.4475 28.4375 39 28.4375H45C45.5525 28.4375 46 27.9481 46 27.3438V25.1563C46 24.552 45.5525 24.0625 45 24.0625ZM62.2188 15.318L42.2188 0.734191C41.5616 0.255446 40.7896 0 40 0C39.2104 0 38.4384 0.255446 37.7812 0.734191L17.7812 15.318C17.2334 15.7174 16.7842 16.2586 16.4735 16.8935C16.1628 17.5284 16.0001 18.2373 16 18.9574V70H32V50.3125C32 49.1039 32.895 48.125 34 48.125H46C47.105 48.125 48 49.1039 48 50.3125V70H64V18.9588C64 17.4959 63.3312 16.1287 62.2188 15.318ZM40 35C34.4775 35 30 30.1027 30 24.0625C30 18.0223 34.4775 13.125 40 13.125C45.5225 13.125 50 18.0223 50 24.0625C50 30.1027 45.5225 35 40 35ZM76 26.25H68V70H78C79.105 70 80 69.0211 80 67.8125V30.625C80 28.2092 78.2087 26.25 76 26.25Z" fill="#9A9797"/>
</g>
<defs>
<clipPath id="clip0_84_19">
<rect width="80" height="70" fill="white"/>
</clipPath>
</defs>
</svg>
