<svg width="42" height="36" viewBox="0 0 42 36" fill="none" xmlns="http://www.w3.org/2000/svg">
<path d="M22.799 3C24.7678 3.0045 25.767 3.0135 26.6298 3.0345L26.9693 3.045C27.3613 3.057 27.748 3.072 28.2153 3.09C30.0773 3.165 31.3478 3.417 32.4625 3.7875C33.6175 4.1685 34.5905 4.6845 35.5635 5.517C36.4534 6.26684 37.142 7.17388 37.5813 8.175C38.0135 9.1305 38.3075 10.2195 38.395 11.817C38.416 12.216 38.4335 12.5475 38.4475 12.885L38.458 13.176C38.4843 13.914 38.4948 14.7705 38.4983 16.458L38.5 17.577V19.542C38.5043 20.6361 38.4909 21.7302 38.4598 22.824L38.4493 23.115C38.4353 23.4525 38.4178 23.784 38.3968 24.183C38.3093 25.7805 38.0118 26.868 37.5813 27.825C37.1432 28.8267 36.4545 29.7339 35.5635 30.483C34.6885 31.2455 33.6303 31.8356 32.4625 32.2125C31.3478 32.583 30.0773 32.835 28.2153 32.91C27.8 32.9268 27.3847 32.9418 26.9693 32.955L26.6298 32.964C25.767 32.985 24.7678 32.9955 22.799 32.9985L21.4935 33H19.2028C17.9257 33.0038 16.6487 32.9923 15.372 32.9655L15.0325 32.9565C14.6171 32.943 14.2018 32.9275 13.7865 32.91C11.9245 32.835 10.654 32.583 9.53753 32.2125C8.3697 31.8366 7.31191 31.2463 6.43828 30.483C5.54761 29.7334 4.85843 28.8263 4.41878 27.825C3.98653 26.8695 3.69253 25.7805 3.60503 24.183C3.58554 23.8271 3.56804 23.4711 3.55253 23.115L3.54378 22.824C3.51153 21.7302 3.49695 20.6361 3.50003 19.542V16.458C3.49515 15.3639 3.50798 14.2698 3.53853 13.176L3.55078 12.885C3.56478 12.5475 3.58228 12.216 3.60328 11.817C3.69078 10.2195 3.98478 9.132 4.41703 8.175C4.85648 7.17286 5.54704 6.26554 6.44003 5.517C7.31344 4.75421 8.37053 4.16398 9.53753 3.7875C10.654 3.417 11.9228 3.165 13.7865 3.09C14.252 3.072 14.6405 3.057 15.0325 3.045L15.372 3.036C16.6481 3.00935 17.9246 2.99785 19.201 3.0015L22.799 3ZM21 10.5C18.6794 10.5 16.4538 11.2902 14.8128 12.6967C13.1719 14.1032 12.25 16.0109 12.25 18C12.25 19.9891 13.1719 21.8968 14.8128 23.3033C16.4538 24.7098 18.6794 25.5 21 25.5C23.3207 25.5 25.5463 24.7098 27.1872 23.3033C28.8282 21.8968 29.75 19.9891 29.75 18C29.75 16.0109 28.8282 14.1032 27.1872 12.6967C25.5463 11.2902 23.3207 10.5 21 10.5ZM21 13.5C21.6895 13.4999 22.3722 13.6162 23.0092 13.8423C23.6462 14.0683 24.225 14.3997 24.7126 14.8175C25.2002 15.2353 25.587 15.7313 25.8509 16.2772C26.1149 16.8232 26.2508 17.4083 26.2509 17.9993C26.251 18.5902 26.1153 19.1754 25.8516 19.7214C25.5879 20.2674 25.2013 20.7635 24.7138 21.1814C24.2264 21.5994 23.6477 21.9309 23.0108 22.1572C22.3739 22.3834 21.6912 22.4999 21.0018 22.5C19.6094 22.5 18.274 22.0259 17.2895 21.182C16.3049 20.3381 15.7518 19.1935 15.7518 18C15.7518 16.8065 16.3049 15.6619 17.2895 14.818C18.274 13.9741 19.6094 13.5 21.0018 13.5M30.1893 8.25C29.6091 8.25 29.0527 8.44754 28.6425 8.79917C28.2323 9.15081 28.0018 9.62772 28.0018 10.125C28.0018 10.6223 28.2323 11.0992 28.6425 11.4508C29.0527 11.8025 29.6091 12 30.1893 12C30.7694 12 31.3258 11.8025 31.7361 11.4508C32.1463 11.0992 32.3768 10.6223 32.3768 10.125C32.3768 9.62772 32.1463 9.15081 31.7361 8.79917C31.3258 8.44754 30.7694 8.25 30.1893 8.25Z" fill="#CAADD6"/>
</svg>
