<svg width="80" height="80" viewBox="0 0 80 80" fill="none" xmlns="http://www.w3.org/2000/svg">
<path d="M20.1665 59.25C19.0554 58.6389 18.1943 57.82 17.5832 56.7933C16.9721 55.7667 16.6665 54.6133 16.6665 53.3333V37.3333L8.6665 32.9167C8.05539 32.5833 7.61095 32.1667 7.33317 31.6667C7.05539 31.1667 6.9165 30.6111 6.9165 30C6.9165 29.3889 7.05539 28.8333 7.33317 28.3333C7.61095 27.8333 8.05539 27.4167 8.6665 27.0833L36.8332 11.75C37.3332 11.4722 37.8476 11.2633 38.3765 11.1233C38.9054 10.9833 39.4465 10.9145 39.9998 10.9167C40.5554 10.9167 41.0976 10.9867 41.6265 11.1267C42.1554 11.2667 42.6687 11.4745 43.1665 11.75L74.9165 29.0833C75.4721 29.3611 75.9032 29.7645 76.2098 30.2933C76.5165 30.8222 76.6687 31.3911 76.6665 32V53.3333C76.6665 54.2778 76.3465 55.07 75.7065 55.71C75.0665 56.35 74.2754 56.6689 73.3332 56.6667C72.3887 56.6667 71.5976 56.3467 70.9598 55.7067C70.3221 55.0667 70.0021 54.2756 69.9998 53.3333V33.6667L63.3332 37.3333V53.3333C63.3332 54.6111 63.0276 55.7645 62.4165 56.7933C61.8054 57.8222 60.9443 58.6411 59.8332 59.25L43.1665 68.25C42.6665 68.5278 42.1532 68.7367 41.6265 68.8767C41.0998 69.0167 40.5576 69.0856 39.9998 69.0833C39.4443 69.0833 38.9021 69.0145 38.3732 68.8767C37.8443 68.7389 37.3309 68.53 36.8332 68.25L20.1665 59.25ZM39.9998 42.3333L62.8332 30L39.9998 17.6667L17.1665 30L39.9998 42.3333ZM39.9998 62.4167L56.6665 53.4167V40.8333L43.2498 48.25C42.7498 48.5278 42.2221 48.7367 41.6665 48.8767C41.1109 49.0167 40.5554 49.0856 39.9998 49.0833C39.4443 49.0833 38.8887 49.0145 38.3332 48.8767C37.7776 48.7389 37.2498 48.53 36.7498 48.25L23.3332 40.8333V53.4167L39.9998 62.4167Z" fill="#9A9797"/>
</svg>
