<svg width="39" height="33" viewBox="0 0 39 33" fill="none" xmlns="http://www.w3.org/2000/svg">
<path d="M36.4974 8.25C35.2462 8.73125 33.8974 9.0475 32.4999 9.19875C33.9299 8.47 35.0349 7.315 35.5549 5.92625C34.2062 6.61375 32.7112 7.095 31.1349 7.37C29.8512 6.1875 28.0474 5.5 25.9999 5.5C22.1812 5.5 19.0612 8.14 19.0612 11.3987C19.0612 11.8662 19.1262 12.32 19.2399 12.7463C13.4549 12.4988 8.30369 10.1475 4.87494 6.58625C4.27369 7.4525 3.93244 8.47 3.93244 9.5425C3.93244 11.5912 5.15119 13.4062 7.03619 14.4375C5.88244 14.4375 4.80994 14.1625 3.86744 13.75V13.7912C3.86744 16.6512 6.27244 19.0437 9.45744 19.58C8.43487 19.8168 7.36135 19.8497 6.32119 19.6762C6.76255 20.8484 7.62694 21.8741 8.79284 22.609C9.95875 23.344 11.3675 23.7513 12.8212 23.7738C10.3571 25.4244 7.30269 26.3166 4.15994 26.3037C3.60744 26.3037 3.05494 26.2762 2.50244 26.2212C5.58994 27.8987 9.26244 28.875 13.1949 28.875C25.9999 28.875 33.0362 19.8825 33.0362 12.0862C33.0362 11.825 33.0362 11.5775 33.0199 11.3162C34.3849 10.4912 35.5549 9.44625 36.4974 8.25Z" fill="#CAADD6"/>
</svg>
