<svg width="25" height="25" viewBox="0 0 25 25" fill="none" xmlns="http://www.w3.org/2000/svg">
<g opacity="0.5">
<path d="M15.725 6.14994C15.0984 5.51172 14.3515 5.00397 13.5276 4.65602C12.7037 4.30806 11.819 4.12679 10.9246 4.12268C10.0302 4.11857 9.14386 4.2917 8.31677 4.63207C7.48967 4.97244 6.7382 5.47331 6.10577 6.10574C5.47334 6.73817 4.97247 7.48964 4.6321 8.31674C4.29173 9.14383 4.1186 10.0302 4.12271 10.9246C4.12682 11.8189 4.30809 12.7036 4.65605 13.5276C5.004 14.3515 5.51175 15.0983 6.14997 15.7249C7.42367 16.9754 9.13965 17.6724 10.9246 17.6642C12.7095 17.656 14.419 16.9433 15.6812 15.6811C16.9433 14.419 17.656 12.7095 17.6642 10.9246C17.6724 9.13962 16.9755 7.42364 15.725 6.14994ZM4.67705 4.67702C6.27374 3.08073 8.41992 2.15471 10.6767 2.08831C12.9335 2.02191 15.1304 2.82015 16.8182 4.3198C18.506 5.81946 19.5571 7.90722 19.7566 10.1562C19.9562 12.4051 19.289 14.6453 17.8916 16.4187L23.4593 21.9864L21.9864 23.4593L16.4187 17.8916C14.6448 19.2838 12.4065 19.9468 10.1604 19.7454C7.91442 19.5439 5.82987 18.4931 4.33203 16.8073C2.83419 15.1216 2.0359 12.9279 2.10002 10.6738C2.16413 8.41966 3.08582 6.2749 4.67705 4.67702Z" fill="black"/>
</g>
</svg>
