<svg width="80" height="70" viewBox="0 0 80 70" fill="none" xmlns="http://www.w3.org/2000/svg">
<path d="M69.9998 29.1667H63.3332V11.6667H66.6665V5.83337H13.3332V11.6667H16.6665V29.1667H9.99984C9.11578 29.1667 8.26794 29.474 7.64281 30.021C7.01769 30.568 6.6665 31.3098 6.6665 32.0834V58.3334H73.3332V32.0834C73.3332 31.3098 72.982 30.568 72.3569 30.021C71.7317 29.474 70.8839 29.1667 69.9998 29.1667ZM46.6665 52.5V40.8334H33.3332V52.5H23.3332V11.6667H56.6665V52.5H46.6665Z" fill="#9A9797"/>
<path d="M30 17.5H36.6667V23.3333H30V17.5ZM43.3333 17.5H50V23.3333H43.3333V17.5ZM30 29.1667H36.6667V35H30V29.1667ZM43.3333 29.1667H50V35H43.3333V29.1667Z" fill="#9A9797"/>
</svg>
