<svg width="17" height="15" viewBox="0 0 17 15" fill="none" xmlns="http://www.w3.org/2000/svg">
<path fill-rule="evenodd" clip-rule="evenodd" d="M5.45467 0.0642434C5.71185 -0.0214145 5.98986 -0.0214145 6.24704 0.0642434L10.8659 1.60385L15.2866 0.130274C15.4499 0.0758511 15.6238 0.061008 15.794 0.086968C15.9642 0.112928 16.1258 0.178948 16.2654 0.279589C16.4051 0.380231 16.5188 0.512614 16.5973 0.665832C16.6757 0.81905 16.7167 0.988719 16.7167 1.16086V12.214C16.7167 12.4771 16.6339 12.7336 16.48 12.9471C16.326 13.1606 16.1088 13.3202 15.8592 13.4034L11.2621 14.9354C11.0046 15.0215 10.7271 15.0215 10.4697 14.9354L5.85086 13.3958L1.43012 14.8694C1.2668 14.9238 1.0929 14.9387 0.922724 14.9127C0.752551 14.8868 0.59098 14.8207 0.451323 14.7201C0.311665 14.6195 0.197918 14.4871 0.119451 14.3339C0.0409836 14.1806 4.24134e-05 14.011 0 13.8388V2.78573C2.43499e-05 2.52255 0.0828625 2.26606 0.236778 2.05259C0.390693 1.83912 0.607881 1.67949 0.857568 1.59633L5.45467 0.0642434ZM5.01502 11.9131V1.97246L1.67167 3.08746V13.0272L5.01502 11.9122V11.9131ZM6.68669 1.97329V11.9131L10.03 13.0281V3.08663L6.68669 1.97162V1.97329ZM11.7017 3.0883V13.0281L15.0451 11.9131V1.97246L11.7017 3.0883Z" fill="black"/>
</svg>
